<svg xmlns="http://www.w3.org/2000/svg" viewBox="0 0 1200 630" width="1200" height="630">
  <!-- Social share card. NOTE FOR DEV: export a 1200x630 PNG from this file and swap the
       og:image / twitter:image URLs to the .png — several crawlers do not rasterise SVG. -->
  <defs>
    <linearGradient id="bg" x1="0" y1="0" x2="1" y2="1">
      <stop offset="0" stop-color="#071B33"/><stop offset=".6" stop-color="#0A2440"/><stop offset="1" stop-color="#0B3B48"/>
    </linearGradient>
    <radialGradient id="glow" cx=".78" cy=".28" r=".55">
      <stop offset="0" stop-color="#12938F" stop-opacity=".55"/><stop offset="1" stop-color="#12938F" stop-opacity="0"/>
    </radialGradient>
  </defs>
  <rect width="1200" height="630" fill="url(#bg)"/>
  <rect width="1200" height="630" fill="url(#glow)"/>
  <g stroke="#7FE0DC" stroke-opacity=".28" fill="none" stroke-width="1.5">
    <path d="M905 200 L905 315 L1035 315"/><path d="M905 430 L905 315 L775 315"/>
    <path d="M1010 205 L905 315"/><path d="M800 425 L905 315"/>
  </g>
  <g fill="#7FE0DC"><circle cx="905" cy="200" r="7"/><circle cx="1035" cy="315" r="7"/><circle cx="905" cy="430" r="7"/><circle cx="775" cy="315" r="7"/><circle cx="1010" cy="205" r="5"/><circle cx="800" cy="425" r="5"/></g>
  <circle cx="905" cy="315" r="34" fill="#12938F"/><circle cx="905" cy="315" r="52" fill="none" stroke="#7FE0DC" stroke-opacity=".45" stroke-width="1.5"/>
  <g transform="translate(88,86) scale(0.12528)" fill-rule="evenodd">
    <path fill="#12AEAE" d="M209.0 445.1 170.0 445.5 151.0 443.5 131.0 439.4 98.0 427.5 79.0 417.4 64.0 407.2 48.5 394.0 34.8 379.0 17.8 353.0 9.9 335.0 4.8 318.0 -0.1 284.0 1.6 252.0 10.0 219.0 16.7 202.0 24.6 187.0 32.7 174.0 47.4 156.0 64.0 139.9 81.0 126.9 111.0 109.7 147.0 96.8 184.0 90.6 221.0 90.8 255.0 97.6 284.0 108.8 315.0 128.8 330.0 142.7 341.0 156.0 352.1 173.0 359.5 188.0 369.3 217.0 374.6 252.0 375.2 281.0 374.0 291.4 95.2 292.0 99.8 312.0 105.6 323.0 113.7 334.0 132.0 349.3 156.0 360.3 173.0 364.2 192.0 365.4 212.0 364.1 227.0 361.1 249.0 353.0 263.0 345.4 290.0 324.1 355.4 369.0 335.0 390.4 318.0 404.4 286.0 423.5 251.0 437.3 230.0 442.2ZM269.1 227.0 273.0 226.0 268.0 211.0 262.1 201.0 250.7 188.0 236.0 177.8 224.0 172.8 210.0 169.5 196.0 168.3 183.0 168.9 166.0 171.7 141.0 182.8 131.0 189.5 118.4 202.0 111.8 211.0 104.0 226.0 117.0 227.0Z"/>
    <path fill="#FFFFFF" d="M923.0 441.2 821.1 441.0 822.0 159.0 821.0 158.1 662.0 330.8 655.0 331.5 610.7 281.0 507.0 158.1 509.5 441.0 408.0 441.0 407.9 2.0 502.0 1.7 629.8 151.0 664.0 188.7 827.0 1.5 923.0 1.3ZM1297.0 441.2 959.0 440.7 959.0 1.4 1294.0 2.0 1294.1 80.0 1293.0 81.0 1065.0 81.0 1062.3 82.0 1062.6 175.0 1264.0 175.2 1264.7 246.0 1264.4 255.0 1263.0 255.7 1063.0 256.0 1062.0 262.0 1062.1 353.0 1062.3 358.0 1064.0 359.3 1296.0 359.2 1297.1 360.0 1297.4 368.0ZM1522.0 441.0 1323.4 441.0 1324.0 1.2 1530.0 1.6 1571.0 5.6 1603.0 11.9 1625.0 18.7 1649.0 28.9 1682.0 49.7 1697.5 63.0 1711.4 78.0 1724.3 96.0 1734.0 113.0 1745.2 142.0 1751.2 167.0 1755.2 207.0 1754.3 238.0 1750.3 268.0 1744.0 292.0 1734.3 317.0 1720.1 342.0 1703.3 364.0 1686.0 381.1 1665.0 397.3 1639.0 412.3 1614.0 423.1 1584.0 432.2 1550.0 438.4ZM1517.5 359.0 1552.0 353.3 1572.0 346.0 1583.0 340.2 1605.0 324.2 1616.4 312.0 1627.3 296.0 1637.5 273.0 1642.5 255.0 1645.3 238.0 1646.3 201.0 1644.4 185.0 1639.3 164.0 1630.3 143.0 1615.2 122.0 1598.0 106.6 1586.0 98.9 1573.0 92.8 1541.0 84.0 1522.0 81.9 1430.0 81.3 1429.5 359.0Z"/>
  </g>
  <text x="88" y="250" font-family="IBM Plex Sans Arabic, Segoe UI, Tahoma, Arial, sans-serif" font-size="58" font-weight="700" fill="#FFFFFF" direction="rtl" text-anchor="end">رعايتك الصحية،</text>
  <text x="88" y="322" font-family="IBM Plex Sans Arabic, Segoe UI, Tahoma, Arial, sans-serif" font-size="58" font-weight="700" fill="#FFFFFF" direction="rtl" text-anchor="end">كما يجب أن تكون.</text>
  <text x="88" y="394" font-family="IBM Plex Sans Arabic, Segoe UI, Tahoma, Arial, sans-serif" font-size="58" font-weight="700" fill="#7FE0DC" direction="rtl" text-anchor="end">متّصلة.</text>
  <text x="88" y="454" font-family="IBM Plex Sans Arabic, Segoe UI, Tahoma, Arial, sans-serif" font-size="23" fill="#A8BDD2" direction="rtl" text-anchor="end">أطباؤك، مستشفياتك، صيدلياتك ومختبراتك —</text>
  <text x="88" y="488" font-family="IBM Plex Sans Arabic, Segoe UI, Tahoma, Arial, sans-serif" font-size="23" fill="#A8BDD2" direction="rtl" text-anchor="end">تجربة صحية واحدة تجمع كل ما تحتاجه عبر eMED.</text>
  <rect x="88" y="536" width="270" height="4" rx="2" fill="#12938F"/>
</svg>
